<svg width="24" height="24" viewBox="0 0 24 24" fill="none" xmlns="http://www.w3.org/2000/svg">
<path d="M5.26879 10.4998C5.26879 9.61584 5.4429 8.74054 5.78118 7.92387C6.11946 7.10719 6.61528 6.36515 7.24033 5.74009C7.86539 5.11504 8.60743 4.61922 9.42411 4.28094C10.2408 3.94266 11.1161 3.76855 12 3.76855C12.884 3.76855 13.7593 3.94266 14.576 4.28094C15.3927 4.61922 16.1347 5.11504 16.7598 5.74009C17.3848 6.36515 17.8806 7.10719 18.2189 7.92387C18.5572 8.74054 18.7313 9.61584 18.7313 10.4998V10.4998C18.7313 13.8561 19.4344 15.8061 20.0532 16.8748C20.1189 16.9886 20.1535 17.1177 20.1537 17.2491C20.1538 17.3806 20.1193 17.5097 20.0538 17.6237C19.9883 17.7376 19.894 17.8323 19.7804 17.8983C19.6667 17.9644 19.5377 17.9993 19.4063 17.9998H4.59379C4.46237 17.9993 4.33337 17.9644 4.21972 17.8983C4.10607 17.8323 4.01177 17.7376 3.94626 17.6237C3.88074 17.5097 3.84632 17.3806 3.84644 17.2491C3.84655 17.1177 3.8812 16.9886 3.94692 16.8748C4.56567 15.8061 5.26879 13.8561 5.26879 10.4998Z" stroke="#0998F0" stroke-width="1.5" stroke-linecap="round" stroke-linejoin="round"/>
<path d="M9 18V18.75C9 19.5456 9.31607 20.3087 9.87868 20.8713C10.4413 21.4339 11.2044 21.75 12 21.75C12.7956 21.75 13.5587 21.4339 14.1213 20.8713C14.6839 20.3087 15 19.5456 15 18.75V18" stroke="#0998F0" stroke-width="1.5" stroke-linecap="round" stroke-linejoin="round"/>
<path d="M17.1938 2.25C18.7209 3.21395 19.9534 4.57938 20.7563 6.19687" stroke="#0998F0" stroke-width="1.5" stroke-linecap="round" stroke-linejoin="round"/>
<path d="M3.24365 6.19687C4.04664 4.57938 5.2791 3.21395 6.80615 2.25" stroke="#0998F0" stroke-width="1.5" stroke-linecap="round" stroke-linejoin="round"/>
</svg>
