<svg width="24" height="24" viewBox="0 0 24 24" fill="none" xmlns="http://www.w3.org/2000/svg">
<path d="M14.25 11.25H12.75V5.25H13.5C14.2956 5.25 15.0587 5.56607 15.6213 6.12868C16.1839 6.69129 16.5 7.45435 16.5 8.25C16.5 8.44891 16.579 8.63968 16.7197 8.78033C16.8603 8.92098 17.0511 9 17.25 9C17.4489 9 17.6397 8.92098 17.7803 8.78033C17.921 8.63968 18 8.44891 18 8.25C17.9988 7.05691 17.5243 5.91303 16.6806 5.06939C15.837 4.22575 14.6931 3.75124 13.5 3.75H12.75V2.25C12.75 2.05109 12.671 1.86032 12.5303 1.71967C12.3897 1.57902 12.1989 1.5 12 1.5C11.8011 1.5 11.6103 1.57902 11.4697 1.71967C11.329 1.86032 11.25 2.05109 11.25 2.25V3.75H10.5C9.30653 3.75 8.16193 4.22411 7.31802 5.06802C6.47411 5.91193 6 7.05653 6 8.25C6 9.44347 6.47411 10.5881 7.31802 11.432C8.16193 12.2759 9.30653 12.75 10.5 12.75H11.25V18.75H9.75C8.95435 18.75 8.19129 18.4339 7.62868 17.8713C7.06607 17.3087 6.75 16.5456 6.75 15.75C6.75 15.5511 6.67098 15.3603 6.53033 15.2197C6.38968 15.079 6.19891 15 6 15C5.80109 15 5.61032 15.079 5.46967 15.2197C5.32902 15.3603 5.25 15.5511 5.25 15.75C5.25124 16.9431 5.72575 18.087 6.56939 18.9306C7.41303 19.7743 8.55691 20.2488 9.75 20.25H11.25V21.75C11.25 21.9489 11.329 22.1397 11.4697 22.2803C11.6103 22.421 11.8011 22.5 12 22.5C12.1989 22.5 12.3897 22.421 12.5303 22.2803C12.671 22.1397 12.75 21.9489 12.75 21.75V20.25H14.25C15.4435 20.25 16.5881 19.7759 17.432 18.932C18.2759 18.0881 18.75 16.9435 18.75 15.75C18.75 14.5565 18.2759 13.4119 17.432 12.568C16.5881 11.7241 15.4435 11.25 14.25 11.25ZM10.5 11.25C9.70435 11.25 8.94129 10.9339 8.37868 10.3713C7.81607 9.80871 7.5 9.04565 7.5 8.25C7.5 7.45435 7.81607 6.69129 8.37868 6.12868C8.94129 5.56607 9.70435 5.25 10.5 5.25H11.25V11.25H10.5ZM14.25 18.75H12.75V12.75H14.25C15.0456 12.75 15.8087 13.0661 16.3713 13.6287C16.9339 14.1913 17.25 14.9544 17.25 15.75C17.25 16.5456 16.9339 17.3087 16.3713 17.8713C15.8087 18.4339 15.0456 18.75 14.25 18.75Z" fill="black"/>
</svg>
