<svg width="24" height="24" viewBox="0 0 24 24" fill="none" xmlns="http://www.w3.org/2000/svg">
<path d="M8.25011 16.875C8.25011 17.0975 8.18413 17.315 8.06052 17.5C7.9369 17.685 7.7612 17.8292 7.55563 17.9144C7.35007 17.9995 7.12387 18.0218 6.90564 17.9784C6.68741 17.935 6.48695 17.8278 6.32962 17.6705C6.17228 17.5132 6.06514 17.3127 6.02173 17.0945C5.97832 16.8763 6.0006 16.6501 6.08575 16.4445C6.1709 16.2389 6.31509 16.0632 6.5001 15.9396C6.6851 15.816 6.90261 15.75 7.12511 15.75C7.42348 15.75 7.70963 15.8685 7.92061 16.0795C8.13159 16.2905 8.25011 16.5766 8.25011 16.875ZM22.5001 14.6428V19.5C22.5001 19.8978 22.3421 20.2794 22.0608 20.5607C21.7795 20.842 21.3979 21 21.0001 21H7.12511C6.87562 21.0002 6.62657 20.9788 6.38074 20.9363C5.30827 20.7406 4.35686 20.1283 3.73446 19.2333C3.11205 18.3382 2.86927 17.2332 3.05918 16.1597L5.40293 2.74126C5.43624 2.54737 5.50751 2.36197 5.61265 2.19569C5.71779 2.0294 5.85472 1.88552 6.0156 1.77229C6.17648 1.65905 6.35813 1.5787 6.55014 1.53584C6.74215 1.49298 6.94073 1.48845 7.13449 1.52251L12.2664 2.43751C12.6568 2.50788 13.0035 2.7301 13.2305 3.0555C13.4576 3.38091 13.5464 3.783 13.4776 4.17376L12.3451 10.6425L18.7023 8.34376C19.075 8.20916 19.4857 8.22747 19.8449 8.39469C20.2041 8.56191 20.4826 8.86445 20.6195 9.23626L22.4064 14.1272C22.4638 14.2933 22.4954 14.4672 22.5001 14.6428ZM9.65636 17.3316L12.0001 3.91314L6.88699 3.00001L4.54324 16.4156C4.42088 17.098 4.57341 17.8011 4.96755 18.3714C5.36169 18.9417 5.96543 19.3329 6.64699 19.4597C6.98063 19.5195 7.32284 19.5125 7.65374 19.4389C7.98463 19.3654 8.29761 19.2268 8.57449 19.0313C8.85845 18.8338 9.10032 18.5818 9.28605 18.29C9.47177 17.9982 9.59765 17.6724 9.65636 17.3316ZM10.9482 18.2813L21.0001 14.6353L19.2114 9.75001L12.047 12.3469L11.1301 17.5894C11.0894 17.8248 11.0285 18.0563 10.9482 18.2813ZM21.0001 16.23L11.9757 19.5H21.0001V16.23Z" fill="black"/>
</svg>
