<svg width="24" height="24" viewBox="0 0 24 24" fill="none" xmlns="http://www.w3.org/2000/svg">
<path d="M4.5 3.75L19.5 20.25" stroke="black" stroke-width="1.5" stroke-linecap="round" stroke-linejoin="round"/>
<path d="M14.522 14.775C13.8338 15.4055 12.9334 15.7536 12.0001 15.75C11.2432 15.75 10.5041 15.5208 9.87984 15.0928C9.25561 14.6648 8.77551 14.0579 8.50265 13.3519C8.22979 12.6459 8.17695 11.8739 8.35107 11.1373C8.52519 10.4008 8.91812 9.73412 9.47821 9.22504" stroke="black" stroke-width="1.5" stroke-linecap="round" stroke-linejoin="round"/>
<path d="M6.9375 6.43121C3.1125 8.36246 1.5 12 1.5 12C1.5 12 4.5 18.75 12 18.75C13.7574 18.7643 15.4929 18.3593 17.0625 17.5687" stroke="black" stroke-width="1.5" stroke-linecap="round" stroke-linejoin="round"/>
<path d="M19.5562 15.8531C21.6 14.025 22.5 12 22.5 12C22.5 12 19.5 5.25002 12 5.25002C11.3498 5.24874 10.7006 5.30205 10.0593 5.4094" stroke="black" stroke-width="1.5" stroke-linecap="round" stroke-linejoin="round"/>
<path d="M12.7031 8.31567C13.5006 8.46678 14.2273 8.87317 14.7735 9.47353C15.3198 10.0739 15.6559 10.8356 15.7313 11.6438" stroke="black" stroke-width="1.5" stroke-linecap="round" stroke-linejoin="round"/>
</svg>
