<svg width="24" height="24" viewBox="0 0 24 24" fill="none" xmlns="http://www.w3.org/2000/svg">
<path d="M17.7511 9.98799C17.7495 9.88891 17.7281 9.02515 17.6881 8.93447C17.6481 8.84379 17.5904 8.76202 17.5184 8.69398L10.3588 2.18771C10.2268 2.06696 10.0544 2 9.87554 2C9.69665 2 9.52425 2.06696 9.39227 2.18771L2.23269 8.69398C2.16064 8.76202 2.10294 8.84379 2.06298 8.93447C2.02302 9.02515 2.0016 9.12291 2 9.222V17.5003C2 17.6901 2.07543 17.8723 2.2097 18.0065C2.34397 18.1408 2.52607 18.2162 2.71596 18.2162H7.01171C7.20159 18.2162 7.3837 18.1408 7.51796 18.0065C7.65223 17.8723 7.72766 17.6901 7.72766 17.5003V13.2045C7.72766 13.0146 7.80309 12.8325 7.93736 12.6983C8.07163 12.564 8.25374 12.4886 8.44362 12.4886H11.3075C11.4973 12.4886 11.6794 12.564 11.8137 12.6983C11.948 12.8325 12.0234 13.0146 12.0234 13.2045V17.1351V17.6555L12.2703 17.976" stroke="black" stroke-width="1.5" stroke-linecap="round" stroke-linejoin="round"/>
<path d="M21.6935 12.9089C22.0052 13.6367 22.0815 14.4438 21.9117 15.2172C21.7419 15.9906 21.3346 16.6915 20.7466 17.2219C20.1586 17.7522 19.4196 18.0854 18.6328 18.1748C17.8461 18.2642 17.0511 18.1054 16.3591 17.7205L13.0266 21.5817C12.7588 21.8495 12.3955 22 12.0168 22C11.638 22 11.2747 21.8495 11.0069 21.5817C10.7391 21.3139 10.5886 20.9506 10.5886 20.5718C10.5886 20.1931 10.7391 19.8298 11.0069 19.562L14.8681 16.2295C14.4832 15.5375 14.3244 14.7425 14.4138 13.9558C14.5032 13.169 14.8364 12.43 15.3667 11.842C15.8971 11.254 16.598 10.8467 17.3714 10.6769C18.1448 10.5071 18.9519 10.5834 19.6797 10.8951L17.1848 13.3841L17.5234 15.0652L19.2045 15.4038L21.6935 12.9089Z" stroke="black" stroke-width="1.3" stroke-linecap="round" stroke-linejoin="round"/>
</svg>
