<svg width="24" height="24" viewBox="0 0 24 24" fill="none" xmlns="http://www.w3.org/2000/svg">
<path d="M13.9218 14.6747C15.0253 13.8072 15.8308 12.6173 16.2264 11.2706C16.6219 9.92393 16.5879 8.48742 16.1289 7.161C15.6699 5.83458 14.8088 4.68423 13.6655 3.87003C12.5222 3.05583 11.1536 2.61829 9.74997 2.61829C8.34639 2.61829 6.97771 3.05583 5.83441 3.87003C4.69111 4.68423 3.83005 5.83458 3.37107 7.161C2.91209 8.48742 2.87801 9.92393 3.27358 11.2706C3.66915 12.6173 4.47469 13.8072 5.5781 14.6747C3.80352 15.3985 2.23544 16.5499 1.01341 18.0263C0.821459 18.2548 0.728142 18.5501 0.753987 18.8475C0.779831 19.1448 0.922721 19.4196 1.15122 19.6116C1.37972 19.8035 1.67512 19.8968 1.97242 19.871C2.26972 19.8451 2.54458 19.7023 2.73653 19.4738C4.5506 17.3147 7.04153 16.125 9.74997 16.125C13.2187 16.125 15.48 17.9456 16.7634 19.4738C16.9554 19.7023 17.2302 19.8451 17.5275 19.871C17.8248 19.8968 18.1202 19.8035 18.3487 19.6116C18.5772 19.4196 18.7201 19.1448 18.746 18.8475C18.7718 18.5501 18.6785 18.2548 18.4865 18.0263C17.2645 16.5499 15.6964 15.3985 13.9218 14.6747ZM5.24997 9.37501C5.24997 8.48499 5.51389 7.61496 6.00836 6.87494C6.50283 6.13492 7.20563 5.55814 8.0279 5.21755C8.85016 4.87695 9.75496 4.78784 10.6279 4.96147C11.5008 5.13511 12.3026 5.56369 12.932 6.19303C13.5613 6.82236 13.9899 7.62419 14.1635 8.4971C14.3371 9.37001 14.248 10.2748 13.9074 11.0971C13.5668 11.9193 12.9901 12.6222 12.25 13.1166C11.51 13.6111 10.64 13.875 9.74997 13.875C8.55688 13.8738 7.41301 13.3993 6.56936 12.5556C5.72572 11.712 5.25121 10.5681 5.24997 9.37501ZM23.1122 13.125L22.4456 13.3416L22.8572 13.9088C22.947 14.0281 23.0121 14.164 23.0488 14.3088C23.0855 14.4535 23.093 14.6041 23.071 14.7518C23.0489 14.8994 22.9976 15.0412 22.9201 15.1689C22.8427 15.2965 22.7406 15.4075 22.6198 15.4953C22.4991 15.5831 22.362 15.646 22.2167 15.6803C22.0714 15.7145 21.9207 15.7196 21.7734 15.695C21.6261 15.6705 21.4852 15.6168 21.3588 15.5373C21.2325 15.4577 21.1232 15.3538 21.0375 15.2316L20.625 14.6634L20.2125 15.2316C20.1267 15.3538 20.0175 15.4577 19.8911 15.5373C19.7648 15.6168 19.6238 15.6705 19.4766 15.695C19.3293 15.7196 19.1786 15.7145 19.0333 15.6803C18.8879 15.646 18.7509 15.5831 18.6301 15.4953C18.5093 15.4075 18.4072 15.2965 18.3298 15.1689C18.2523 15.0412 18.2011 14.8994 18.179 14.7518C18.1569 14.6041 18.1644 14.4535 18.2011 14.3088C18.2378 14.164 18.303 14.0281 18.3928 13.9088L18.8043 13.3416L18.1378 13.125C17.9973 13.0794 17.8671 13.0065 17.7547 12.9106C17.6423 12.8147 17.5499 12.6976 17.4828 12.566C17.4157 12.4343 17.3752 12.2908 17.3635 12.1435C17.3519 11.9962 17.3694 11.848 17.415 11.7075C17.4606 11.567 17.5334 11.4368 17.6294 11.3244C17.7253 11.212 17.8424 11.1196 17.974 11.0525C18.1056 10.9854 18.2492 10.9449 18.3965 10.9332C18.5438 10.9216 18.6919 10.9391 18.8325 10.9847L19.5 11.2013V10.5C19.5 10.2016 19.6185 9.91549 19.8295 9.70451C20.0405 9.49353 20.3266 9.37501 20.625 9.37501C20.9233 9.37501 21.2095 9.49353 21.4205 9.70451C21.6314 9.91549 21.75 10.2016 21.75 10.5V11.2013L22.4175 10.9847C22.558 10.9391 22.7062 10.9216 22.8534 10.9332C23.0007 10.9449 23.1443 10.9854 23.2759 11.0525C23.4076 11.1196 23.5247 11.212 23.6206 11.3244C23.7165 11.4368 23.7894 11.567 23.835 11.7075C23.8806 11.848 23.8981 11.9962 23.8864 12.1435C23.8748 12.2908 23.8343 12.4343 23.7671 12.566C23.7 12.6976 23.6076 12.8147 23.4953 12.9106C23.3829 13.0065 23.2527 13.0794 23.1122 13.125Z" fill="black"/>
</svg>
