<svg width="24" height="24" viewBox="0 0 24 24" fill="none" xmlns="http://www.w3.org/2000/svg">
<path d="M14.25 21L10.0594 14.7187C10.0264 14.6665 9.98079 14.6234 9.92669 14.5935C9.87259 14.5636 9.8118 14.548 9.75 14.548C9.6882 14.548 9.62741 14.5636 9.57331 14.5935C9.51921 14.6234 9.47356 14.6665 9.44062 14.7187L7.48125 17.6625C7.4464 17.7142 7.3992 17.7564 7.34391 17.7853C7.28863 17.8142 7.22702 17.8289 7.16465 17.8279C7.10228 17.827 7.04113 17.8105 6.98673 17.78C6.93234 17.7495 6.88642 17.7059 6.85312 17.6531L5.94375 16.2375C5.90857 16.1853 5.8611 16.1425 5.80552 16.113C5.74994 16.0834 5.68795 16.0679 5.625 16.0679C5.56205 16.0679 5.50006 16.0834 5.44448 16.113C5.3889 16.1425 5.34143 16.1853 5.30625 16.2375L2.25 21H14.25Z" stroke="black" stroke-width="1.5" stroke-linecap="round" stroke-linejoin="round"/>
<path d="M14.25 3V8.25H19.5" stroke="black" stroke-width="1.5" stroke-linecap="round" stroke-linejoin="round"/>
<path d="M18 21H18.75C18.9489 21 19.1397 20.921 19.2803 20.7803C19.421 20.6397 19.5 20.4489 19.5 20.25V8.25L14.25 3H5.25C5.05109 3 4.86032 3.07902 4.71967 3.21967C4.57902 3.36032 4.5 3.55109 4.5 3.75V12.75" stroke="black" stroke-width="1.5" stroke-linecap="round" stroke-linejoin="round"/>
</svg>
