<svg width="24" height="24" viewBox="0 0 24 24" fill="none" xmlns="http://www.w3.org/2000/svg">
<path d="M20.5219 6.65623C21.0138 7.80494 21.1343 9.07874 20.8663 10.2993C20.5983 11.5199 19.9554 12.6261 19.0275 13.463C18.0996 14.3 16.9331 14.8259 15.6915 14.967C14.4499 15.1081 13.1952 14.8574 12.1031 14.25L6.84375 20.3437C6.42106 20.7664 5.84777 21.0039 5.25 21.0039C4.65222 21.0039 4.07894 20.7664 3.65625 20.3437C3.23356 19.921 2.99609 19.3478 2.99609 18.75C2.99609 18.1522 3.23356 17.5789 3.65625 17.1562L9.75 11.8969C9.14258 10.8048 8.89188 9.55011 9.03299 8.30848C9.1741 7.06685 9.69996 5.90042 10.5369 4.97251C11.3739 4.0446 12.4801 3.40165 13.7007 3.13368C14.9212 2.86572 16.195 2.98615 17.3437 3.47811L13.4062 7.40623L13.9406 10.0594L16.5937 10.5937L20.5219 6.65623Z" stroke="black" stroke-width="1.5" stroke-linecap="round" stroke-linejoin="round"/>
</svg>
