<svg width="24" height="24" viewBox="0 0 24 24" fill="none" xmlns="http://www.w3.org/2000/svg">
<path d="M20.8124 12C20.8124 12.1492 20.7531 12.2922 20.6477 12.3977C20.5422 12.5032 20.3991 12.5625 20.2499 12.5625H9.74991C9.60072 12.5625 9.45765 12.5032 9.35216 12.3977C9.24667 12.2922 9.18741 12.1492 9.18741 12C9.18741 11.8508 9.24667 11.7077 9.35216 11.6022C9.45765 11.4967 9.60072 11.4375 9.74991 11.4375H20.2499C20.3991 11.4375 20.5422 11.4967 20.6477 11.6022C20.7531 11.7077 20.8124 11.8508 20.8124 12ZM9.74991 6.56249H20.2499C20.3991 6.56249 20.5422 6.50322 20.6477 6.39773C20.7531 6.29224 20.8124 6.14917 20.8124 5.99999C20.8124 5.8508 20.7531 5.70773 20.6477 5.60224C20.5422 5.49675 20.3991 5.43749 20.2499 5.43749H9.74991C9.60072 5.43749 9.45765 5.49675 9.35216 5.60224C9.24667 5.70773 9.18741 5.8508 9.18741 5.99999C9.18741 6.14917 9.24667 6.29224 9.35216 6.39773C9.45765 6.50322 9.60072 6.56249 9.74991 6.56249ZM20.2499 17.4375H9.74991C9.60072 17.4375 9.45765 17.4967 9.35216 17.6022C9.24667 17.7077 9.18741 17.8508 9.18741 18C9.18741 18.1492 9.24667 18.2922 9.35216 18.3977C9.45765 18.5032 9.60072 18.5625 9.74991 18.5625H20.2499C20.3991 18.5625 20.5422 18.5032 20.6477 18.3977C20.7531 18.2922 20.8124 18.1492 20.8124 18C20.8124 17.8508 20.7531 17.7077 20.6477 17.6022C20.5422 17.4967 20.3991 17.4375 20.2499 17.4375ZM4.00116 5.00342L4.68741 4.6603V9.74999C4.68741 9.89917 4.74667 10.0422 4.85216 10.1477C4.95765 10.2532 5.10072 10.3125 5.24991 10.3125C5.39909 10.3125 5.54217 10.2532 5.64766 10.1477C5.75314 10.0422 5.81241 9.89917 5.81241 9.74999V3.74999C5.81244 3.65412 5.78796 3.55984 5.74131 3.47609C5.69466 3.39234 5.62738 3.3219 5.54585 3.27146C5.46432 3.22102 5.37126 3.19226 5.27549 3.1879C5.17972 3.18354 5.08443 3.20373 4.99866 3.24655L3.49866 3.99655C3.36514 4.06318 3.26356 4.18013 3.21626 4.32166C3.16897 4.46319 3.17983 4.61772 3.24647 4.75124C3.31311 4.88476 3.43005 4.98634 3.57158 5.03363C3.71311 5.08092 3.86764 5.07006 4.00116 5.00342ZM6.74991 18.9375H4.87491L6.88866 16.2431C7.05501 16.0292 7.17653 15.784 7.24596 15.5221C7.31538 15.2602 7.33129 14.9869 7.29272 14.7187C7.25482 14.4465 7.16228 14.1848 7.02067 13.9493C6.87906 13.7137 6.69129 13.5092 6.46866 13.3481C6.02123 13.0234 5.46561 12.8841 4.91791 12.9594C4.3702 13.0347 3.87279 13.3187 3.52959 13.7522C3.39931 13.9204 3.2956 14.1075 3.22209 14.3072C3.171 14.4474 3.1777 14.6022 3.24073 14.7375C3.30376 14.8728 3.41796 14.9775 3.55819 15.0286C3.69842 15.0797 3.85321 15.073 3.9885 15.0099C4.12379 14.9469 4.2285 14.8327 4.27959 14.6925C4.31258 14.6024 4.35939 14.5179 4.41834 14.4422C4.58061 14.2383 4.81532 14.1051 5.0735 14.0701C5.33167 14.0352 5.59337 14.1013 5.80397 14.2547C5.90486 14.3275 5.99006 14.4199 6.05448 14.5264C6.11891 14.6328 6.16125 14.7512 6.17897 14.8744C6.19525 14.9949 6.18703 15.1175 6.15481 15.2347C6.12259 15.352 6.06704 15.4616 5.99147 15.5569L5.98584 15.5653L3.29991 19.1634C3.2375 19.247 3.19956 19.3463 3.19032 19.4502C3.18108 19.5541 3.20091 19.6585 3.2476 19.7518C3.29428 19.845 3.36598 19.9235 3.45469 19.9784C3.54339 20.0332 3.6456 20.0624 3.74991 20.0625H6.74991C6.89909 20.0625 7.04217 20.0032 7.14765 19.8977C7.25314 19.7922 7.31241 19.6492 7.31241 19.5C7.31241 19.3508 7.25314 19.2077 7.14765 19.1022C7.04217 18.9967 6.89909 18.9375 6.74991 18.9375Z" fill="black"/>
</svg>
