<svg width="24" height="24" viewBox="0 0 24 24" fill="none" xmlns="http://www.w3.org/2000/svg">
<path d="M6.75 9.75L14.25 17.25" stroke="black" stroke-width="1.5" stroke-linecap="round" stroke-linejoin="round"/>
<path d="M9.54365 17.1937L6.61865 20.1187" stroke="black" stroke-width="1.5" stroke-linecap="round" stroke-linejoin="round"/>
<path d="M6.91865 14.5687L3.99365 17.4937" stroke="black" stroke-width="1.5" stroke-linecap="round" stroke-linejoin="round"/>
<path d="M12.7594 8.64375L17.9062 2.90625C18.3289 2.48356 18.9022 2.24609 19.5 2.24609C20.0978 2.24609 20.6711 2.48356 21.0938 2.90625C21.5164 3.32894 21.7539 3.90222 21.7539 4.5C21.7539 5.09777 21.5164 5.67106 21.0938 6.09375L15.3563 11.2406C15.2807 11.3088 15.2197 11.3916 15.1771 11.484C15.1346 11.5765 15.1113 11.6766 15.1086 11.7783C15.106 11.8801 15.1241 11.9813 15.1618 12.0758C15.1996 12.1703 15.2562 12.2562 15.3281 12.3281L16.1906 13.1906C16.4689 13.473 16.6249 13.8535 16.6249 14.25C16.6249 14.6464 16.4689 15.027 16.1906 15.3094L9 22.5L1.5 15L8.69062 7.80937C8.97302 7.53112 9.35355 7.37514 9.75 7.37514C10.1464 7.37514 10.527 7.53112 10.8094 7.80937L11.6719 8.67187C11.7438 8.74384 11.8297 8.80042 11.9242 8.83816C12.0187 8.87589 12.1199 8.89399 12.2217 8.89136C12.3234 8.88873 12.4235 8.86542 12.516 8.82285C12.6084 8.78028 12.6912 8.71934 12.7594 8.64375V8.64375Z" stroke="black" stroke-width="1.5" stroke-linecap="round" stroke-linejoin="round"/>
</svg>
