<svg width="24" height="24" viewBox="0 0 24 24" fill="none" xmlns="http://www.w3.org/2000/svg">
<path d="M18.75 12.75H23.25" stroke="black" stroke-width="1.5" stroke-linecap="round" stroke-linejoin="round"/>
<path d="M21 10.5V15" stroke="black" stroke-width="1.5" stroke-linecap="round" stroke-linejoin="round"/>
<path d="M10.125 15C13.2316 15 15.75 12.4816 15.75 9.375C15.75 6.2684 13.2316 3.75 10.125 3.75C7.0184 3.75 4.5 6.2684 4.5 9.375C4.5 12.4816 7.0184 15 10.125 15Z" stroke="black" stroke-width="1.5" stroke-miterlimit="10"/>
<path d="M2.0813 18.75C3.06685 17.5753 4.29771 16.6308 5.68736 15.9828C7.07701 15.3347 8.59173 14.9989 10.125 14.9989C11.6584 14.9989 13.1731 15.3347 14.5627 15.9828C15.9524 16.6308 17.1832 17.5753 18.1688 18.75" stroke="black" stroke-width="1.5" stroke-linecap="round" stroke-linejoin="round"/>
</svg>
