<svg width="24" height="24" viewBox="0 0 24 24" fill="none" xmlns="http://www.w3.org/2000/svg">
<path d="M12 16.5C14.4853 16.5 16.5 14.4853 16.5 12C16.5 9.51472 14.4853 7.5 12 7.5C9.51472 7.5 7.5 9.51472 7.5 12C7.5 14.4853 9.51472 16.5 12 16.5Z" stroke="black" stroke-width="1.5" stroke-linecap="round" stroke-linejoin="round"/>
<path d="M17.2218 6.10309C17.4593 6.32184 17.6843 6.54684 17.8968 6.77809L20.4562 7.14371C20.8732 7.86794 21.1946 8.64314 21.4124 9.44996L19.8562 11.5218C19.8562 11.5218 19.8843 12.1593 19.8562 12.4781L21.4124 14.55C21.1956 15.3571 20.8741 16.1325 20.4562 16.8562L17.8968 17.2218C17.8968 17.2218 17.4562 17.6812 17.2218 17.8968L16.8562 20.4562C16.1319 20.8732 15.3567 21.1947 14.5499 21.4125L12.478 19.8562C12.1599 19.8843 11.8399 19.8843 11.5218 19.8562L9.4499 21.4125C8.64274 21.1957 7.8674 20.8742 7.14365 20.4562L6.77803 17.8968C6.54678 17.6781 6.32178 17.4531 6.10303 17.2218L3.54365 16.8562C3.12664 16.132 2.80521 15.3568 2.5874 14.55L4.14365 12.4781C4.14365 12.4781 4.11553 11.8406 4.14365 11.5218L2.5874 9.44996C2.8042 8.6428 3.12568 7.86747 3.54365 7.14371L6.10303 6.77809C6.32178 6.54684 6.54678 6.32184 6.77803 6.10309L7.14365 3.54371C7.86788 3.1267 8.64308 2.80527 9.4499 2.58746L11.5218 4.14371C11.8399 4.11558 12.1599 4.11558 12.478 4.14371L14.5499 2.58746C15.3571 2.80426 16.1324 3.12574 16.8562 3.54371L17.2218 6.10309Z" stroke="black" stroke-width="1.5" stroke-linecap="round" stroke-linejoin="round"/>
</svg>
